<?xml version="1.0" encoding="utf-8"?>
<!-- Generator: Adobe Illustrator 21.0.0, SVG Export Plug-In . SVG Version: 6.00 Build 0)  -->
<svg version="1.1" id="Layer_1" xmlns="http://www.w3.org/2000/svg" xmlns:xlink="http://www.w3.org/1999/xlink" x="0px" y="0px"
	 width="1400px" height="980px" viewBox="0 0 1400 980" style="enable-background:new 0 0 1400 980;" xml:space="preserve">
<style type="text/css">
	.st0{fill:#606060;}
</style>
<path class="st0" d="M98,174.3c1.6,1.6,3.6,2.5,5.6,2.9v12.1c0,1.1,0.9,2,2,2h57.7c1.1,0,2-0.9,2-2l0-12.1c2.1-0.3,4-1.3,5.6-2.9
	l15.9-15.9c3.5-3.5,5.5-8.3,5.5-13.3c0-5-2-9.7-5.5-13.3l-17.3-17.3c-3.5-3.5-8.2-5.5-13.2-5.5h-8.6c6.7-4.4,11.1-11.9,11.1-20.4
	c0-13.5-11-24.4-24.4-24.4S110,75.2,110,88.6c0,8.5,4.4,16.1,11.1,20.4h-8.6c-5,0-9.7,1.9-13.2,5.5L82,131.8
	c-3.5,3.5-5.5,8.3-5.5,13.3c0,5,2,9.7,5.5,13.3L98,174.3z M114,88.6c0-11.3,9.2-20.4,20.4-20.4s20.4,9.2,20.4,20.4
	s-9.2,20.4-20.4,20.4S114,99.9,114,88.6z M153.1,113.1l-18.7,35.5l-18.6-35.5H153.1z M135,155.6l3.4,2.4l-5.5,7.9l-3.4-2.4
	L135,155.6z M84.9,134.6l17.3-17.3c2.5-2.5,5.7-4,9.2-4.2l20.8,39.6l-7.1,10.2c-0.6,0.9-0.4,2.2,0.5,2.8l6.7,4.6
	c0.3,0.2,0.7,0.4,1.1,0.4c0.6,0,1.3-0.3,1.6-0.9l7.8-11.2c0.6-0.9,0.4-2.2-0.5-2.8l-5.3-3.6l20.5-39.1c3.5,0.3,6.7,1.8,9.2,4.2
	l17.3,17.3c2.8,2.8,4.3,6.5,4.3,10.4c0,3.9-1.5,7.7-4.3,10.4l-15.9,15.9c-1.2,1.2-2.8,1.9-4.5,1.9s-3.3-0.7-4.5-1.9
	c-2.5-2.5-2.5-6.5,0-9l15.9-15.9c0.8-0.8,0.8-2,0-2.8l-10.3-10.3c-0.6-0.6-1.4-0.7-2.2-0.4c-0.7,0.3-1.2,1-1.2,1.8l0,19.7l-5.1,5.1
	c-4,4-4,10.6,0,14.7c1.4,1.4,3.2,2.4,5.1,2.8l0,10.2h-53.7V177c1.9-0.4,3.6-1.3,5.1-2.8c4-4,4-10.6,0-14.7l-5.1-5.1v-19.7
	c0-0.8-0.5-1.5-1.2-1.8c-0.7-0.3-1.6-0.1-2.2,0.4l-10.3,10.3c-0.4,0.4-0.6,0.9-0.6,1.4c0,0.5,0.2,1,0.6,1.4l15.9,15.9
	c2.5,2.5,2.5,6.5,0,9c-2.5,2.5-6.5,2.5-9,0l-15.9-15.9c-2.8-2.8-4.3-6.5-4.3-10.4C80.5,141.1,82.1,137.4,84.9,134.6z M165.3,150.5
	l0-10.9l5.5,5.5L165.3,150.5z M103.6,139.6v10.9l-5.5-5.5L103.6,139.6z"/>
<path class="st0" d="M499.7,88.6h-0.9v-4.9c0-1.1-0.9-2-2-2h-5.3v-1.8c0-1.1-0.9-2-2-2h-7.3c-1.1,0-2,0.9-2,2v8.8H433
	c0.1-0.5,0.1-1.1,0.1-1.7c0-9.2-7.4-16.6-16.6-16.6c-9.2,0-16.6,7.4-16.6,16.6c0,0.6,0,1.1,0.1,1.7h-47.1v-8.8c0-1.1-0.9-2-2-2h-7.3
	c-1.1,0-2,0.9-2,2v1.8h-5.3c-1.1,0-2,0.9-2,2v4.9h-0.9c-1.1,0-2,0.9-2,2c0,1.1,0.9,2,2,2h0.9v4.9c0,1.1,0.9,2,2,2h5.3v1.8
	c0,1.1,0.9,2,2,2h7.3c1.1,0,2-0.9,2-2v-8.8h12.6c-0.2,0.4-0.4,0.9-0.5,1.4c-0.5,2-0.2,4.1,0.9,5.8l12,18.8c2.7,4.2,8.3,5.4,12.5,2.7
	l5.5-3.5l0,26.4l-12.1,1.6c-0.9,0.1-1.6,0.9-1.7,1.8l-2.6,27.9c-0.2,2.4,0.5,4.8,2,6.6c1.5,1.7,3.5,2.8,5.7,3c0.2,0,0.5,0,0.7,0
	c4.2,0,7.8-3.1,8.4-7.4l2.4-17.2l17.9-2.2l17.9,2.2l2.3,17c0.5,3.9,3.6,7,7.3,7.5c2.6,0.3,5.2-0.5,7-2.3c1.9-1.8,2.8-4.3,2.6-6.9
	l-2.7-28.2c-0.1-0.9-0.8-1.7-1.7-1.8l-12.1-1.6v-26.4l5.5,3.5c4.2,2.7,9.8,1.5,12.5-2.7l12-18.8c1.1-1.7,1.4-3.9,0.9-5.8
	c-0.1-0.5-0.3-0.9-0.5-1.4h12.6v8.8c0,1.1,0.9,2,2,2h7.3c1.1,0,2-0.9,2-2v-1.8h5.3c1.1,0,2-0.9,2-2v-4.9h0.9c1.1,0,2-0.9,2-2
	C501.7,89.5,500.8,88.6,499.7,88.6z M338.2,95.5v-9.9h3.3v9.9H338.2z M348.9,99.4h-3.3v-1.8V83.7v-1.8h3.3V99.4z M416.5,74.3
	c7,0,12.6,5.7,12.6,12.6c0,7-5.7,12.6-12.6,12.6c-7,0-12.6-5.7-12.6-12.6C403.9,80,409.6,74.3,416.5,74.3z M400.9,92.6
	c1,2.7,2.7,5.1,4.8,7h-4.1c-2.8,0-5.6,0.8-8,2.3l-6.5,4.1l-8.6-13.4H400.9z M463.8,97.7l-12,18.8c-1.5,2.3-4.6,3-7,1.5l-8.6-5.5
	c-0.6-0.4-1.4-0.4-2-0.1c-0.6,0.4-1,1-1,1.8l0,31.8c0,1,0.7,1.8,1.7,2l12.2,1.6l2.5,26.6c0.1,1.4-0.4,2.7-1.4,3.7
	c-1,1-2.4,1.4-3.7,1.2c-2-0.3-3.6-1.9-3.9-4l-2.5-18.5c-0.1-0.9-0.8-1.6-1.7-1.7l-19.7-2.4c-0.2,0-0.3,0-0.5,0l-19.7,2.4
	c-0.9,0.1-1.6,0.8-1.7,1.7l-2.6,18.7c-0.3,2.4-2.5,4.1-4.8,3.9c-1.1-0.1-2.2-0.6-2.9-1.6c-0.8-1-1.3-2.3-1.1-3.6l2.5-26.3l12.2-1.6
	c1-0.1,1.7-1,1.7-2v-31.8c0-0.7-0.4-1.4-1-1.8c-0.6-0.4-1.4-0.3-2,0.1l-8.6,5.5c-2.3,1.5-5.5,0.8-7-1.5l-12-18.8
	c-0.5-0.8-0.7-1.7-0.4-2.6c0.2-0.9,0.8-1.7,1.7-2.1c1.5-0.8,3.4-0.2,4.4,1.4l10,15.6c0.3,0.4,0.7,0.8,1.3,0.9c0.5,0.1,1.1,0,1.5-0.3
	l8.1-5.2c1.7-1.1,3.8-1.7,5.8-1.7h29.8c2.1,0,4.1,0.6,5.8,1.7l8.1,5.2c0.4,0.3,1,0.4,1.5,0.3c0.5-0.1,1-0.4,1.3-0.9l10-15.6
	c1-1.5,2.9-2.1,4.4-1.4c0.8,0.4,1.5,1.2,1.7,2.1C464.5,95.9,464.3,96.9,463.8,97.7z M445.9,106l-6.5-4.1c-2.4-1.5-5.1-2.3-8-2.3
	h-4.1c2.2-1.8,3.8-4.2,4.8-7h22.4L445.9,106z M487.5,99.4h-3.3V81.8h3.3v1.8v13.9V99.4z M494.8,95.5h-3.3v-9.9h3.3V95.5z"/>
<g>
	<path class="st0" d="M652.3,141c0,0.1,0,0.3,0,0.4v14.2c0,1.1,0.9,2,2,2h15.1v20.9c0,1.1,0.9,2,2,2s2-0.9,2-2v-20.9H719v20.9
		c0,1.1,0.9,2,2,2c1.1,0,2-0.9,2-2v-20.9h13.1v14.8c0,4.3,3.2,7.9,7.3,8.1c0.1,0,0.3,0,0.4,0c2,0,3.9-0.7,5.3-2.1
		c1.5-1.5,2.4-3.5,2.4-5.6v-42.8c0-1.1-0.9-2-2-2H719c-0.9-3.7-4.3-6.5-8.3-6.5h-13.2v-16.2c5.2-2.6,8.8-8,8.8-14.2
		c0-8.8-7.1-15.9-15.9-15.9c-8.8,0-15.9,7.1-15.9,15.9c0,6.2,3.6,11.6,8.8,14.2v16.2h-0.4c-3.1,0-5.9,1.2-7.9,3.1
		c-1.7-6.3-7.5-11-14.4-11c-8.2,0-14.9,6.7-14.9,14.9C645.5,133.7,648.2,138.3,652.3,141z M656.3,153.6v-10.2h26.1h53.8v10.2H656.3z
		 M670.6,139.4c0.7-0.7,1.4-1.4,1.9-2.2c0.4,0.8,0.8,1.5,1.4,2.2H670.6z M678.4,90.9c0-6.6,5.4-11.9,11.9-11.9s11.9,5.4,11.9,11.9
		s-5.4,11.9-11.9,11.9S678.4,97.5,678.4,90.9z M682.7,125.4h2.4c1.1,0,2-0.9,2-2v-16.8c1,0.2,2.1,0.3,3.2,0.3s2.1-0.1,3.2-0.3v16.8
		c0,1.1,0.9,2,2,2h15.2c2.5,0,4.5,2,4.5,4.5c0,1.1,0.9,2,2,2h30.4v40.8c0,1-0.4,2-1.2,2.7c-0.8,0.7-1.8,1.1-2.8,1
		c-2-0.1-3.6-1.9-3.6-4.1v-16.8v-14.2c0-1.1-0.9-2-2-2h-55.8c-1.9,0-3.7-0.8-5-2.1c-1.3-1.4-2-3.2-2-5.1
		C675.5,128.4,678.8,125.4,682.7,125.4z M660.4,117.5c6,0,10.9,4.9,10.9,10.9c0,6-4.9,10.9-10.9,10.9s-10.9-4.9-10.9-10.9
		C649.5,122.4,654.4,117.5,660.4,117.5z"/>
	<path class="st0" d="M697.5,90.9c0-3.9-3.2-7.2-7.2-7.2c-3.9,0-7.2,3.2-7.2,7.2c0,3.9,3.2,7.2,7.2,7.2
		C694.3,98.1,697.5,94.9,697.5,90.9z M687.2,90.9c0-1.7,1.4-3.2,3.2-3.2c1.7,0,3.2,1.4,3.2,3.2c0,1.7-1.4,3.2-3.2,3.2
		C688.6,94.1,687.2,92.7,687.2,90.9z"/>
</g>
<path class="st0" d="M929,116.3h31.9v27l-11.4,1.5c-0.9,0.1-1.6,0.9-1.7,1.8l-2.5,26.5c-0.2,2.3,0.5,4.6,2,6.3
	c1.4,1.7,3.3,2.7,5.5,2.9c0.2,0,0.5,0,0.7,0c4.1,0,7.5-3,8.1-7.1l2.2-16.2l16.9-2.1l16.9,2.1l2.2,16c0.5,3.8,3.4,6.7,7.1,7.2
	c2.5,0.3,5-0.5,6.8-2.2c1.8-1.7,2.7-4.2,2.5-6.6l-2.5-26.8c-0.1-0.9-0.8-1.7-1.7-1.8l-11.4-1.5v-27h31.9c4.2,0,7.7-3.5,7.7-7.7
	c0-4.2-3.5-7.7-7.7-7.7h-41.1c3.3-2.9,5.4-7.1,5.4-11.9c0-8.7-7.1-15.9-15.9-15.9s-15.9,7.1-15.9,15.9c0,4.7,2.1,9,5.4,11.9H929
	c-4.2,0-7.7,3.5-7.7,7.7C921.3,112.8,924.8,116.3,929,116.3z M968.8,89c0-6.5,5.3-11.9,11.9-11.9c6.5,0,11.9,5.3,11.9,11.9
	s-5.3,11.9-11.9,11.9C974.1,100.9,968.8,95.6,968.8,89z M929,104.9h103.2c2,0,3.7,1.7,3.7,3.7c0,2-1.7,3.7-3.7,3.7h-33.9
	c-1.1,0-2,0.9-2,2l0,30.8c0,1,0.7,1.8,1.7,2l11.5,1.5l2.4,25.2c0.1,1.3-0.3,2.5-1.3,3.4c-0.9,0.9-2.2,1.3-3.5,1.1
	c-1.8-0.2-3.3-1.8-3.6-3.8l-2.4-17.6c-0.1-0.9-0.8-1.6-1.7-1.7l-18.7-2.3c-0.2,0-0.3,0-0.5,0l-18.7,2.3c-0.9,0.1-1.6,0.8-1.7,1.7
	l-2.4,17.7c-0.3,2.2-2.3,3.8-4.5,3.6c-1-0.1-2-0.6-2.7-1.4c-0.8-0.9-1.2-2.2-1.1-3.4l2.3-24.9l11.5-1.5c1-0.1,1.7-1,1.7-2v-30.8
	c0-1.1-0.9-2-2-2H929c-2,0-3.7-1.7-3.7-3.7C925.3,106.5,927,104.9,929,104.9z"/>
<g>
	<path class="st0" d="M116.8,351.3c-11.4,0-20.7,9.3-20.7,20.7c0,11.4,9.3,20.7,20.7,20.7c11.4,0,20.7-9.3,20.7-20.7
		C137.5,360.6,128.2,351.3,116.8,351.3z M116.8,388.7c-9.2,0-16.7-7.5-16.7-16.7c0-9.2,7.5-16.7,16.7-16.7c9.2,0,16.7,7.5,16.7,16.7
		C133.5,381.2,126,388.7,116.8,388.7z"/>
	<path class="st0" d="M201.9,330h-18.4c-1.1,0-2,0.9-2,2v4.9h-9V332c0-1.1-0.9-2-2-2h-53.7c-20.1,0-37,14.3-41.1,33.2h-2
		c-4.8,0-8.7,3.9-8.7,8.7c0,4.8,3.9,8.7,8.7,8.7h2c4,19,20.9,33.2,41.1,33.2c23.1,0,42-18.8,42-42c0-0.7,0-1.4-0.1-2.2l43.6-8.7
		c0.9-0.2,1.6-1,1.6-2V332C203.9,330.9,203,330,201.9,330z M73.7,376.7c-2.6,0-4.7-2.1-4.7-4.7c0-2.6,2.1-4.7,4.7-4.7h1.4
		c-0.2,1.6-0.3,3.1-0.3,4.7c0,1.6,0.1,3.2,0.3,4.7H73.7z M199.9,357.5l-43.7,8.7c-1,0.2-1.7,1.1-1.6,2.1c0.1,1.3,0.2,2.5,0.2,3.6
		c0,20.9-17,38-38,38s-38-17-38-38s17-38,38-38h51.7v4.9c0,1.1,0.9,2,2,2h13c1.1,0,2-0.9,2-2V334h14.4V357.5z"/>
</g>
<g>
	<path class="st0" d="M387.9,335.7c0-0.5-0.2-1-0.6-1.4l-4.7-4.7c-0.8-0.8-2-0.8-2.8,0l-11.6,11.6c-0.4,0.4-0.6,0.9-0.6,1.4
		s0.2,1,0.6,1.4l4.7,4.7c0.4,0.4,0.9,0.6,1.4,0.6s1-0.2,1.4-0.6l1.1-1.1l3.9,3.9c-5.9,7.9-9.5,17.7-9.5,28.3
		c0,26,21.1,47.1,47.1,47.1c26,0,47.1-21.1,47.1-47.1c0-23.7-17.6-43.4-40.5-46.6v-5.5h1.6c1.1,0,2-0.9,2-2v-6.6c0-1.1-0.9-2-2-2
		h-16.4c-1.1,0-2,0.9-2,2v6.6c0,1.1,0.9,2,2,2h1.6v5.5c-8.1,1.1-15.5,4.3-21.7,9l-3.9-3.9l1.1-1.1
		C387.7,336.8,387.9,336.3,387.9,335.7z M461.4,377.8h-2.4c-1.1,0-2,0.9-2,2s0.9,2,2,2h2.4c-1,22.2-18.9,40-41.1,41.1v-2.4
		c0-1.1-0.9-2-2-2s-2,0.9-2,2v2.4c-22.2-1-40-18.9-41.1-41.1h2.4c1.1,0,2-0.9,2-2s-0.9-2-2-2h-2.4c1-22.2,18.9-40,41.1-41.1v2.4
		c0,1.1,0.9,2,2,2s2-0.9,2-2v-2.4C442.5,337.8,460.4,355.6,461.4,377.8z M412.1,321.1h12.4v2.6H423h-9.2h-1.6V321.1z M415.8,327.7
		h5.2v5.1c-0.9,0-1.7-0.1-2.6-0.1c-0.9,0-1.7,0-2.6,0.1V327.7z M383.3,348.4l-3.6-3.6l3.7-3.7l3.6,3.6
		C385.7,345.9,384.4,347.1,383.3,348.4z M372.4,342.7l8.8-8.8l1.9,1.9l-8.8,8.8L372.4,342.7z"/>
	<path class="st0" d="M422.7,372.6c-1.3-0.8-2.8-1.2-4.4-1.2c-4.6,0-8.4,3.8-8.4,8.4s3.8,8.4,8.4,8.4s8.4-3.8,8.4-8.4
		c0-1.6-0.5-3.1-1.2-4.4l16.6-16.6c0.8-0.8,0.8-2,0-2.8c-0.8-0.8-2-0.8-2.8,0L422.7,372.6z M418.4,384.2c-2.4,0-4.4-2-4.4-4.4
		s2-4.4,4.4-4.4s4.4,2,4.4,4.4S420.8,384.2,418.4,384.2z"/>
</g>
<g>
	<path class="st0" d="M715.8,316.7h-34.4c-1.1,0-2,0.9-2,2v5.1h-17.1c-1.1,0-2,0.9-2,2v99.5c0,1.1,0.9,2,2,2h72.6c1.1,0,2-0.9,2-2
		v-99.5c0-1.1-0.9-2-2-2h-17.1v-5.1C717.8,317.6,716.9,316.7,715.8,316.7z M683.4,320.7h30.4V331h-30.4V320.7z M732.9,327.8v95.5
		h-68.6v-95.5h15.1v5.1c0,1.1,0.9,2,2,2h34.4c1.1,0,2-0.9,2-2v-5.1H732.9z"/>
	<path class="st0" d="M671.7,350.2c0,1.1,0.9,2,2,2h49.8c1.1,0,2-0.9,2-2c0-1.1-0.9-2-2-2h-49.8
		C672.6,348.2,671.7,349.1,671.7,350.2z"/>
	<path class="st0" d="M723.5,360.9h-49.8c-1.1,0-2,0.9-2,2s0.9,2,2,2h49.8c1.1,0,2-0.9,2-2S724.6,360.9,723.5,360.9z"/>
	<path class="st0" d="M723.5,373.6h-49.8c-1.1,0-2,0.9-2,2s0.9,2,2,2h49.8c1.1,0,2-0.9,2-2S724.6,373.6,723.5,373.6z"/>
	<path class="st0" d="M723.5,386.2h-49.8c-1.1,0-2,0.9-2,2s0.9,2,2,2h49.8c1.1,0,2-0.9,2-2S724.6,386.2,723.5,386.2z"/>
	<path class="st0" d="M698.6,398.9h-24.9c-1.1,0-2,0.9-2,2s0.9,2,2,2h24.9c1.1,0,2-0.9,2-2S699.7,398.9,698.6,398.9z"/>
</g>
<g>
	<path class="st0" d="M930.3,388.2c2.1,0,4.2-0.8,5.8-2.4l4.1-4.1l21.7,21.7l-4.1,4.1c-1.5,1.5-2.4,3.6-2.4,5.8
		c0,2.2,0.8,4.2,2.4,5.8l9.4,9.4c1.5,1.5,3.6,2.4,5.8,2.4c2.2,0,4.2-0.8,5.8-2.4l20.7-20.7c3.2-3.2,3.2-8.4,0-11.5l-9.4-9.4
		c-3.2-3.2-8.4-3.2-11.5,0l-4.1,4.1l-21.7-21.7l4.1-4.1c1.5-1.5,2.4-3.6,2.4-5.8c0-2.2-0.8-4.2-2.4-5.8l-9.4-9.4
		c-1.5-1.5-3.6-2.4-5.8-2.4c-2.2,0-4.2,0.8-5.8,2.4l-20.7,20.7c-3.2,3.2-3.2,8.4,0,11.5l9.4,9.4
		C926.2,387.4,928.2,388.2,930.3,388.2z M981.3,389.6c0.8-0.8,1.9-1.2,2.9-1.2c1.1,0,2.1,0.4,2.9,1.2l9.4,9.4c1.6,1.6,1.6,4.3,0,5.9
		l-20.7,20.7c-1.6,1.6-4.3,1.6-5.9,0l-9.4-9.4c-0.8-0.8-1.2-1.8-1.2-2.9c0-1.1,0.4-2.2,1.2-2.9L981.3,389.6z M949.8,372.1l21.7,21.7
		l-6.8,6.8l-21.7-21.7l3.4-3.4L949.8,372.1z M918,367.7l20.7-20.7c0.8-0.8,1.8-1.2,2.9-1.2c1.1,0,2.2,0.4,2.9,1.2l9.4,9.4
		c0.8,0.8,1.2,1.8,1.2,2.9c0,1.1-0.4,2.2-1.2,2.9c0,0,0,0,0,0L933.3,383c-1.6,1.6-4.3,1.6-5.9,0l-9.4-9.4
		C916.4,372,916.4,369.4,918,367.7z"/>
	<path class="st0" d="M1036.7,358.2c-1.5-1.5-3.6-2.4-5.8-2.4c-2.2,0-4.2,0.8-5.8,2.4l-4.1,4.1l-21.7-21.7l4.1-4.1
		c3.2-3.2,3.2-8.4,0-11.5l-9.4-9.4c-3.2-3.2-8.4-3.2-11.5,0l-20.7,20.7c-1.5,1.5-2.4,3.6-2.4,5.8c0,2.2,0.8,4.2,2.4,5.8l9.4,9.4
		c1.5,1.5,3.6,2.4,5.8,2.4c2.2,0,4.2-0.8,5.8-2.4l4.1-4.1l21.7,21.7l-4.1,4.1c-3.2,3.2-3.2,8.4,0,11.5l9.4,9.4
		c1.6,1.6,3.7,2.4,5.8,2.4c2.1,0,4.2-0.8,5.8-2.4l20.7-20.7c1.5-1.5,2.4-3.6,2.4-5.8c0-2.2-0.8-4.2-2.4-5.8L1036.7,358.2z
		 M980,354.4c-1.6,1.6-4.3,1.6-5.9,0l-9.4-9.4c-0.8-0.8-1.2-1.8-1.2-2.9c0-1.1,0.4-2.2,1.2-2.9l20.7-20.7c0.8-0.8,1.9-1.2,2.9-1.2
		c1.1,0,2.1,0.4,2.9,1.2l9.4,9.4c1.6,1.6,1.6,4.3,0,5.9l-5.5,5.5c0,0,0,0,0,0l-4.8,4.8L980,354.4z M989.8,350.2l3.4-3.4l3.4-3.4
		l21.7,21.7l-6.8,6.8L989.8,350.2z M1043.3,376.3l-20.7,20.7c-1.6,1.6-4.3,1.6-5.9,0l-9.4-9.4c-1.6-1.6-1.6-4.3,0-5.9l5.5-5.5
		c0,0,0,0,0,0l9.6-9.6c0,0,0,0,0,0l5.5-5.5c0.8-0.8,1.8-1.2,2.9-1.2c1.1,0,2.2,0.4,2.9,1.2l9.4,9.4c0.8,0.8,1.2,1.8,1.2,2.9
		C1044.5,374.4,1044.1,375.5,1043.3,376.3z"/>
</g>
<path class="st0" d="M1205.2,374.5c0,1.1,0.9,2,2,2h11.9c13.2,23.9,41,42.3,42.5,43.3c0.3,0.2,0.7,0.3,1.1,0.3s0.8-0.1,1.1-0.3
	c1.5-1,29.3-19.4,42.5-43.3h11.9c1.1,0,2-0.9,2-2s-0.9-2-2-2h-9.8c3-6.4,4.9-13.1,4.9-19.9c0-15.9-12.9-28.8-28.8-28.8
	c-8.3,0-16.3,3.7-21.7,9.9c-5.4-6.3-13.4-9.9-21.7-9.9c-15.9,0-28.8,12.9-28.8,28.8c0,6.8,1.9,13.5,4.9,19.9h-9.8
	C1206.1,372.5,1205.2,373.4,1205.2,374.5z M1262.7,415.8c-5.1-3.6-27.1-19.5-39-39.2h7.4c0.5,0,1-0.2,1.4-0.6l10-10l10.2,10.2
	c0.5,0.5,1.2,0.7,1.9,0.5c0.7-0.2,1.2-0.7,1.4-1.4l4.2-15.9l6.1,29.2c0.2,0.9,1,1.6,1.9,1.6c0,0,0,0,0,0c0.9,0,1.7-0.6,1.9-1.5
	l3.8-14.6h7.3c1,0,1.8-0.7,2-1.7l1.6-9.7l3.4,19.5c0.1,0.8,0.7,1.4,1.5,1.6c0.8,0.2,1.6-0.1,2.1-0.8l4.8-6.4h5.1
	C1289.8,396.3,1267.9,412.2,1262.7,415.8z M1216.2,352.6c0-13.7,11.1-24.8,24.8-24.8c7.9,0,15.4,3.9,20.1,10.3
	c0.4,0.5,1,0.8,1.6,0.8s1.2-0.3,1.6-0.8c4.7-6.5,12.2-10.3,20.1-10.3c13.7,0,24.8,11.1,24.8,24.8c0,6.8-2.1,13.5-5.4,19.9h-8.3
	c-0.6,0-1.2,0.3-1.6,0.8l-2.6,3.5l-4.6-26.6c-0.2-1-1-1.7-2-1.7c0,0,0,0,0,0c-1,0-1.8,0.7-2,1.7l-3.2,19.7h-7.1
	c-0.9,0-1.7,0.6-1.9,1.5l-2,7.8l-6-29.1c-0.2-0.9-1-1.6-1.9-1.6c-0.9,0-1.7,0.6-2,1.5l-5.5,20.7l-9.1-9.1c-0.8-0.8-2-0.8-2.8,0
	l-10.8,10.8h-8.8C1218.3,366.1,1216.2,359.4,1216.2,352.6z"/>
<g>
	<path class="st0" d="M118.8,576.5c-1,0.1-1.8,1-1.8,2v10.8v11.8l-7,5.6c-0.5,0.4-0.8,1-0.8,1.6v63.5c0,1.1,0.9,2,2,2h43.5
		c1.1,0,2-0.9,2-2v-63.5c0-0.6-0.3-1.2-0.8-1.6l-7-5.6v-2.4h2c4.8,0,8.8-3.9,8.8-8.8s-3.9-8.8-8.8-8.8h-2v-2.7c0-1-0.8-1.9-1.8-2
		l-9.3-1v-5.9c1-1.2,1.6-2.7,1.6-4.3c0-3.6-2.9-6.5-6.5-6.5c-3.6,0-6.5,2.9-6.5,6.5c0,1.6,0.6,3.1,1.6,4.3v5.9L118.8,576.5z
		 M152.7,609.2v60.6h-39.5v-60.6l7-5.6c0.5-0.4,0.8-1,0.8-1.6v-10.8h24V602c0,0.6,0.3,1.2,0.8,1.6L152.7,609.2z M151,585.1
		c2.6,0,4.8,2.1,4.8,4.8c0,2.6-2.1,4.8-4.8,4.8h-2v-5.4v-4.1H151z M145,587.2h-24v-7l12-1.2l12,1.2V587.2z M131.4,567.2
		c-0.6-0.5-0.9-1.2-0.9-1.9c0-1.4,1.1-2.5,2.5-2.5s2.5,1.1,2.5,2.5c0,0.7-0.3,1.4-0.9,1.9c-0.5,0.4-0.7,0.9-0.7,1.5v6.3l-0.7-0.1
		c-0.1,0-0.3,0-0.4,0l-0.7,0.1v-6.2C132.1,568.2,131.9,567.6,131.4,567.2z"/>
</g>
<path class="st0" d="M487.2,605.4h-8.5v-10.5c0-1.1-0.9-2-2-2h-13.8v-3.7c0-1.1-0.9-2-2-2h-19c-1.1,0-2,0.9-2,2v16.2h-46.8v-16.2
	c0-1.1-0.9-2-2-2h-19c-1.1,0-2,0.9-2,2v3.7h-13.8c-1.1,0-2,0.9-2,2v10.5h-8.5c-1.1,0-2,0.9-2,2v17.9c0,1.1,0.9,2,2,2h8.5v10.5
	c0,1.1,0.9,2,2,2h13.8v3.7c0,1.1,0.9,2,2,2h19c1.1,0,2-0.9,2-2v-16.2h46.8v16.2c0,1.1,0.9,2,2,2h19c1.1,0,2-0.9,2-2v-3.7h13.8
	c1.1,0,2-0.9,2-2v-10.5h8.5c1.1,0,2-0.9,2-2v-17.9C489.2,606.3,488.4,605.4,487.2,605.4z M347.8,623.2v-13.9h6.5v13.9H347.8z
	 M358.3,635.7v-10.5v-17.9v-10.5h11.8v38.8H358.3z M389.1,641.4h-15v-3.7v-42.8v-3.7h15v16.2v17.9V641.4z M393.1,623.2v-13.9h46.8
	v13.9H393.1z M458.9,641.4h-15v-16.2v-17.9v-16.2h15v3.7v42.8V641.4z M474.7,635.7h-11.8v-38.8h11.8v10.5v17.9V635.7z M485.3,623.2
	h-6.5v-13.9h6.5V623.2z"/>
<path class="st0" d="M731.3,664.1h13.9c1.1,0,2-0.9,2-2v-30h2c1.1,0,2-0.9,2-2v-10c0-1.1-0.9-2-2-2h-9v-34.4
	c0-8.4-6.8-15.2-15.2-15.2c-8.4,0-15.2,6.8-15.2,15.2v49.3c0,6.2-5,11.2-11.2,11.2c-6.2,0-11.2-5-11.2-11.2v-49.3
	c0-8.4-6.8-15.2-15.2-15.2c-8.4,0-15.2,6.8-15.2,15.2v34.4h-9c-1.1,0-2,0.9-2,2v10c0,1.1,0.9,2,2,2h2v30c0,1.1,0.9,2,2,2h13.9
	c1.1,0,2-0.9,2-2v-30h2c1.1,0,2-0.9,2-2v-10c0-1.1-0.9-2-2-2h-9v-34.4c0-6.2,5-11.2,11.2-11.2s11.2,5,11.2,11.2v49.3
	c0,8.4,6.8,15.2,15.2,15.2c8.4,0,15.2-6.8,15.2-15.2v-49.3c0-6.2,5-11.2,11.2-11.2c6.2,0,11.2,5,11.2,11.2v34.4h-9c-1.1,0-2,0.9-2,2
	v10c0,1.1,0.9,2,2,2h2v30C729.3,663.2,730.2,664.1,731.3,664.1z M663.9,660.1H654v-28h9.9V660.1z M667.9,628.1h-2H652h-2v-6h17.9
	V628.1z M743.2,660.1h-9.9v-28h9.9V660.1z M729.3,622.1h17.9v6h-2h-13.9h-2V622.1z"/>
<g>
	<path class="st0" d="M1039.7,615.4c0-14.9-11.7-27.1-26.4-27.9l-1.8-8.4h4.6c1.1,0,2-0.9,2-2v-6.6c0-1.1-0.9-2-2-2h-23.5
		c-1.1,0-2,0.9-2,2v6.6c0,1.1,0.9,2,2,2h4.7l2.4,11.1c-5.9,2.8-10.8,7.7-13.5,13.9l-37.5-2l-6.2-23h4.8c1.1,0,2-0.9,2-2v-6.6
		c0-1.1-0.9-2-2-2h-23.5c-1.1,0-2,0.9-2,2v6.6c0,1.1,0.9,2,2,2h6l7.2,26.9c-2.4,2.4-3.9,5.8-3.9,9.4c0,3.7,1.5,7,3.9,9.4l-6.9,25.7
		h-4.3c-1.1,0-2,0.9-2,2v9.7c0,1.1,0.9,2,2,2h105.6c1.1,0,2-0.9,2-2v-9.7c0-1.1-0.9-2-2-2h-4.2l-2.3-10.4
		C1033.6,635.4,1039.7,626.1,1039.7,615.4z M925.6,572.4h19.5v2.6h-19.5V572.4z M994.4,572.4h19.5v2.6h-19.5V572.4z M1001.2,579h6.1
		l1.8,8.4c-2,0.2-3.9,0.6-5.8,1.2L1001.2,579z M1011.6,591.3c13.2,0,24,10.8,24,24c0,13.2-10.8,24-24,24c-8.9,0-17.1-5.1-21.3-12.9
		l21.3-1.1c5.5,0,10-4.5,10-10c0-5.5-4.5-10-9.9-10c0,0,0,0,0,0l-21.4-1.1C994.5,596.4,1002.7,591.3,1011.6,591.3z M937,615.4
		c0-5.2,4.2-9.4,9.4-9.4l65.3,3.4c3.3,0,6,2.7,6,6s-2.7,6-6.2,6l-65.1,3.4C941.2,624.8,937,620.6,937,615.4z M948.5,628.7l37.5-2
		c4.4,9.9,14.3,16.5,25.2,16.6l1.6,7.1h-70.1L948.5,628.7z M938.3,579.5l6.1,22.6c-1.5,0.2-2.8,0.7-4.1,1.3l-6.4-23.9H938.3z
		 M940.3,627.3c1.3,0.6,2.6,1.1,4.1,1.3l-5.9,21.9h-4.4L940.3,627.3z M1029.3,660.1H927.6v-5.7h3.8h8.6h75.2h10.2h3.8V660.1z
		 M1023,650.5h-6.1l-1.6-7.4c2-0.3,3.9-0.7,5.8-1.4L1023,650.5z"/>
	<path class="st0" d="M952.9,615.4c0-3.6-2.9-6.5-6.5-6.5s-6.5,2.9-6.5,6.5s2.9,6.5,6.5,6.5S952.9,618.9,952.9,615.4z M943.9,615.4
		c0-1.4,1.1-2.5,2.5-2.5s2.5,1.1,2.5,2.5c0,1.4-1.1,2.5-2.5,2.5S943.9,616.7,943.9,615.4z"/>
</g>
<path class="st0" d="M1310.6,631.8l-10.3,1.1l6.8-46.3l5.2-0.8c1-0.2,1.7-1,1.7-2v-8.4c0-0.6-0.3-1.1-0.7-1.5s-1-0.5-1.6-0.5
	l-22.6,3.7c-1,0.2-1.7,1-1.7,2v8.4c0,0.6,0.3,1.1,0.7,1.5c0.4,0.3,0.8,0.5,1.3,0.5c0.1,0,0.2,0,0.3,0l3.8-0.6l-6.7,45.5l-73.8,7.5
	c-4.5,0.5-7.8,4.2-7.8,8.7c0,2.5,1,4.8,2.9,6.5c1.6,1.5,3.7,2.2,5.8,2.2c0.3,0,0.6,0,0.9,0l95.4-9.8v7.8c0,1.1,0.9,2,2,2s2-0.9,2-2
	v-8.4c3.5-1.1,6-4.4,6-8.3c0-2.5-1-4.8-2.9-6.5C1315.5,632.4,1313.1,631.6,1310.6,631.8z M1291.4,580.8l18.6-3v4.3l-18.6,3V580.8z
	 M1297.7,588.1l5.3-0.9l-6.8,46.1l-5.3,0.5L1297.7,588.1z M1312,645.2l-97.6,10c-1.3,0.1-2.6-0.3-3.6-1.2c-1-0.9-1.6-2.1-1.6-3.5
	c0-2.4,1.8-4.4,4.2-4.7l97.6-10c0.2,0,0.3,0,0.5,0c1.2,0,2.3,0.4,3.1,1.2c1,0.9,1.6,2.1,1.6,3.5
	C1316.2,642.9,1314.4,644.9,1312,645.2z"/>
<g>
	<path class="st0" d="M179.6,813.5H89.4c-1.1,0-2,0.9-2,2v90.2c0,1.1,0.9,2,2,2h90.2c1.1,0,2-0.9,2-2v-90.2
		C181.6,814.4,180.7,813.5,179.6,813.5z M177.6,903.7H91.4v-86.2h86.2V903.7z"/>
	<path class="st0" d="M108.7,849.2h51.5c1.1,0,2-0.9,2-2v-20.9c0-1.1-0.9-2-2-2h-51.5c-1.1,0-2,0.9-2,2v20.9
		C106.7,848.4,107.6,849.2,108.7,849.2z M110.7,828.4h47.5v16.9h-18.9l7-7c0.8-0.8,0.8-2,0-2.8c-0.8-0.8-2-0.8-2.8,0l-9.8,9.8h-22.9
		V828.4z"/>
	<path class="st0" d="M108.7,867.4h51.5c1.1,0,2-0.9,2-2c0-1.1-0.9-2-2-2h-51.5c-1.1,0-2,0.9-2,2
		C106.7,866.5,107.6,867.4,108.7,867.4z"/>
	<path class="st0" d="M156.7,874.5h-44.4c-1.1,0-2,0.9-2,2c0,1.1,0.9,2,2,2h44.4c1.1,0,2-0.9,2-2
		C158.7,875.4,157.8,874.5,156.7,874.5z"/>
	<path class="st0" d="M150.5,885.6h-32c-1.1,0-2,0.9-2,2c0,1.1,0.9,2,2,2h32c1.1,0,2-0.9,2-2C152.5,886.5,151.6,885.6,150.5,885.6z"
		/>
</g>
<g>
	<path class="st0" d="M454.4,838.3c-0.1-1-1-1.8-2-1.8h-14.1v-4.9c0-12-9.8-21.8-21.8-21.8c-12,0-21.8,9.8-21.8,21.8v4.9h-14.1
		c-1,0-1.9,0.8-2,1.8l-8,70.7c-0.1,0.6,0.1,1.1,0.5,1.6s0.9,0.7,1.5,0.7h87.8c0.6,0,1.1-0.2,1.5-0.7s0.6-1,0.5-1.6L454.4,838.3z
		 M398.8,831.7c0-9.8,8-17.8,17.8-17.8c9.8,0,17.8,8,17.8,17.8v4.9h-35.5V831.7z M374.9,907.2l7.5-66.7h14.3h39.5h14.3l7.5,66.7
		H374.9z"/>
	<polygon class="st0" points="415,863.5 409.4,863.5 400.9,872.7 400.9,863.5 396.8,863.5 396.8,884.3 400.9,884.3 400.9,878 
		404.3,874.5 410,884.3 415.5,884.3 407.2,871.6 	"/>
	<path class="st0" d="M427.3,876.6h4.8v2.6c-0.6,0.5-1.4,0.9-2.3,1.3c-0.9,0.3-1.8,0.5-2.6,0.5c-1.8,0-3.2-0.6-4.3-1.8
		c-1.1-1.2-1.6-3.1-1.6-5.5c0-2.3,0.5-4,1.6-5.2c1.1-1.2,2.5-1.7,4.4-1.7c1.2,0,2.2,0.3,3,0.9c0.8,0.6,1.4,1.4,1.6,2.4l4.2-0.8
		c-0.4-1.9-1.3-3.4-2.8-4.5c-1.4-1.1-3.5-1.6-6-1.6c-2,0-3.6,0.3-5,1c-1.7,0.9-3.1,2.2-4,3.9c-0.9,1.7-1.4,3.6-1.4,5.8
		c0,2,0.4,3.8,1.2,5.5c0.8,1.7,2,3,3.6,3.9c1.6,0.9,3.5,1.4,5.7,1.4c1.7,0,3.4-0.3,5.1-1c1.7-0.6,2.9-1.4,3.8-2.2v-8.3h-9V876.6z"/>
</g>
<path class="st0" d="M1008.7,831.9c-1.9-1.7-4.5-2.5-7-2.2c0,0-3.8,0.6-8.2,1.3c-1.6,0.3-3.2,0.5-4.8,0.6c2.2-1.8,4.5-4.2,6.1-7.4
	c4.1-8,1.9-17.1,1.8-17.5c-0.1-0.6-0.5-1-1-1.3c-0.5-0.3-1.1-0.3-1.7-0.1c-0.4,0.1-9.1,3.7-13.2,11.6c-0.5,1-0.9,2-1.2,3
	c-1.1-2.4-2.6-4.8-4.7-6.9c-0.8-0.8-2-0.8-2.8,0c-0.8,0.8-0.8,2,0,2.8c4.5,4.5,6,11.3,6.4,15.2c0,0.3,0.1,0.6,0.1,0.8
	c0,0,0,0.1,0,0.1c-3.6-0.1-7.2-0.4-10.7-1c-4.4-0.7-8.2-1.3-8.2-1.3c-2.6-0.4-5.1,0.4-7,2.2c-10.5,9.7-16.4,22.9-16.6,37.2
	c-0.2,14.3,5.4,27.6,15.6,37.6l2.9,2.8c4.2,4.1,9.7,6.3,15.6,6.3c3.9,0,7.7-1.3,10.6-3.8c3,2.5,6.7,3.8,10.6,3.8
	c5.8,0,11.4-2.2,15.6-6.3l2.9-2.8c10.3-10,15.8-23.3,15.6-37.6C1025.1,854.8,1019.2,841.6,1008.7,831.9z M984.3,819
	c2.2-4.3,6.3-7.2,8.8-8.6c0.3,2.9,0.3,7.8-1.9,12.2c-2.2,4.3-6.3,7.2-8.8,8.6c0-0.1,0-0.2,0-0.3C982.2,827.9,982.2,823.2,984.3,819z
	 M1006.9,903.8l-2.9,2.8c-3.4,3.3-8,5.2-12.8,5.2c-3.5,0-6.8-1.4-9.2-3.9c-0.4-0.4-0.9-0.6-1.4-0.6c-0.5,0-1.1,0.2-1.4,0.6
	c-2.4,2.5-5.7,3.9-9.2,3.9c-4.8,0-9.3-1.8-12.8-5.2l-2.9-2.8c-9.5-9.2-14.6-21.5-14.4-34.7c0.2-13.2,5.6-25.4,15.3-34.3
	c1-0.9,2.4-1.3,3.7-1.1c0,0,3.8,0.6,8.2,1.3c4.6,0.7,9.1,1.1,13.7,1.1c0,0,0,0,0,0c0,0,0,0,0,0c4.4,0,8.8-0.4,13.2-1.1
	c4.4-0.7,8.2-1.3,8.2-1.3c1.3-0.2,2.7,0.2,3.7,1.1c9.7,8.9,15.1,21.1,15.3,34.3C1021.5,882.3,1016.4,894.7,1006.9,903.8z"/>
<g>
	<path class="st0" d="M1285.5,826h1.4c2.4,0,4.4-2,4.4-4.4v-11.8c0-2.4-2-4.4-4.4-4.4h-48.4c-2.4,0-4.4,2-4.4,4.4v11.8
		c0,2.4,2,4.4,4.4,4.4h1.4l-8,9.7c-2.7,3.3-4.2,7.5-4.2,11.7v49.9c0,10.2,8.3,18.5,18.5,18.5h33c10.2,0,18.5-8.3,18.5-18.5v-49.9
		c0-4.3-1.5-8.4-4.2-11.7L1285.5,826z M1238.1,821.6v-11.8c0-0.2,0.2-0.4,0.4-0.4h48.4c0.2,0,0.4,0.2,0.4,0.4v11.8
		c0,0.2-0.2,0.4-0.4,0.4h-5.7h-37h-5.7C1238.3,822,1238.1,821.8,1238.1,821.6z M1293.7,897.3c0,8-6.5,14.5-14.5,14.5h-33
		c-8,0-14.5-6.5-14.5-14.5v-49.9c0-3.3,1.2-6.6,3.3-9.2l10.1-12.3h35.1l10.1,12.3c2.1,2.6,3.3,5.9,3.3,9.2V897.3z"/>
	<path class="st0" d="M1283.4,848H1242c-1.1,0-2,0.9-2,2v40.9c0,1.1,0.9,2,2,2h41.5c1.1,0,2-0.9,2-2V850
		C1285.4,848.9,1284.5,848,1283.4,848z M1281.4,888.9H1244V852h37.5V888.9z"/>
</g>
<path class="st0" d="M755,856.1l-75.3-27.5c-0.2-0.1-0.5-0.1-0.7-0.1h-9.3c-0.4,0-0.8,0.1-1.2,0.4c-7.4,5.5-17.4,5.5-24.8,0
	c-0.3-0.3-0.8-0.4-1.2-0.4h-8c-1.1,0-2,0.9-2,2v55.6c0,1.1,0.9,2,2,2h114.8c9.1,0,16.5-7.4,16.5-16.5
	C765.9,864.7,761.5,858.5,755,856.1z M699.2,872.9l12-28.5l9.3,3.4L710,872.9H699.2z M684.1,872.9l14-33.3l9.3,3.4l-12.5,29.9H684.1
	z M641.9,832.5c8.6,6,19.9,6,28.5,0h8.3l15.7,5.7l-14.5,34.7h-43.2v-40.4H641.9z M749.4,884.1H636.6v-7.2h124.1
	C758.7,881.2,754.4,884.1,749.4,884.1z M761.8,872.9h-47.5l10-23.7l29.4,10.7c4.9,1.8,8.2,6.5,8.2,11.8
	C761.9,872.1,761.9,872.5,761.8,872.9z"/>
<path class="st0" d="M1333,170.1h-7.2c2-3,2.1-7.1,0-10.2c0,0,0,0,0,0l-19.3-27.6c-2.4-3.6-6.1-6-10.4-6.8
	c-4.2-0.8-8.5,0.1-12.1,2.6l-22.1,15.1l-12.9-18.9l12.5-30.6c1.1-2.7,0.9-5.7-0.4-8c-2.1-3.5-6.2-5.2-10.1-4l-25.6,7.7
	c-2.7-1.5-5.7-2.2-8.8-2.2c-10.2,0-18.5,8.3-18.5,18.5c0,10.2,8.3,18.5,18.5,18.5c0.9,0,1.8-0.1,2.7-0.2c-0.6,1.2-1,2.6-1.3,3.9
	c-0.8,4.3,0.1,8.6,2.6,12.2l19.8,28.9c0.3,0.4,0.6,0.8,0.9,1.1h-48.8c-1.1,0-2,0.9-2,2c0,1.1,0.9,2,2,2h125.8c0,0,0,0,0,0
	c0,0,0,0,0,0h14.7c1.1,0,2-0.9,2-2C1335,171,1334.1,170.1,1333,170.1z M1202.1,105.7c0-8,6.5-14.5,14.5-14.5c0.8,0,1.5,0.1,2.3,0.2
	l-1.4,0.4c-4.5,1.4-7.3,5.9-6.4,10.3c0.5,2.4,2,4.5,4.1,5.8c2.1,1.3,4.7,1.6,7,0.9l8.8-2.7c-0.1,4.1-1.9,7.8-4.8,10.4l-1.5,1
	c-0.4,0.3-0.8,0.6-1.2,0.9c-2.1,1.1-4.4,1.8-6.9,1.8C1208.6,120.2,1202.1,113.7,1202.1,105.7z M1235,104.8l3.4-1l-2.4,6l-1.7,1.1
	c0.5-1.7,0.8-3.4,0.8-5.2C1235,105.4,1235,105.1,1235,104.8z M1223.8,137.8c-1.8-2.7-2.5-6-1.9-9.2c0.5-2.8,1.9-5.2,4-7
	c1-0.6,1.9-1.3,2.8-2l9.5-6.5c0.5-0.2,0.9-0.6,1.1-1.1l4.3-10.5c0.3-0.7,0.1-1.5-0.4-2.1c-0.5-0.6-1.3-0.8-2.1-0.6l-20.2,6.1
	c-1.3,0.4-2.7,0.2-3.8-0.5c-1.2-0.7-2-1.8-2.2-3.1c-0.5-2.4,1.1-4.9,3.6-5.6l33.5-10.1c2.1-0.6,4.4,0.3,5.5,2.2
	c0.7,1.3,0.8,2.9,0.2,4.5l-12.9,31.6c-0.3,0.6-0.2,1.3,0.2,1.9l14.7,21.4c0.6,0.9,1.9,1.1,2.8,0.5l23.8-16.3
	c2.7-1.8,5.9-2.5,9.1-1.9c3.2,0.6,6,2.4,7.8,5.1l19.3,27.6c1.6,2.3,1,5.5-1.3,7.1c-0.8,0.6-1.8,0.9-2.8,0.9h0c-0.3,0-0.7,0-1-0.1
	c-1.3-0.2-2.5-1-3.3-2.1l-19.3-27.6c-0.4-0.6-1-0.9-1.6-0.9c-0.4,0-0.8,0.1-1.1,0.4l-41.3,28.3c-1.1,0.8-2.5,1.1-3.8,0.8
	c-1.3-0.2-2.5-1-3.3-2.1L1223.8,137.8z M1292.6,144.2l18.1,26h-56L1292.6,144.2z"/>
</svg>
